<?xml version="1.0" encoding="UTF-8"?>
<svg xmlns="http://www.w3.org/2000/svg" xmlns:xlink="http://www.w3.org/1999/xlink" width="80px" height="80px" viewBox="0 0 50 50" version="1.1">
<defs>
<linearGradient id="linear0" gradientUnits="userSpaceOnUse" x1="158.4202" y1="165.4913" x2="203.5615" y2="165.4913" gradientTransform="matrix(0.166667,0,0,0.166667,0,0)">
<stop offset="0" style="stop-color:rgb(49.411765%,74.509804%,84.313725%);stop-opacity:1;"/>
<stop offset="1" style="stop-color:rgb(7.843137%,19.215686%,59.215686%);stop-opacity:1;"/>
</linearGradient>
<linearGradient id="linear1" gradientUnits="userSpaceOnUse" x1="172.8369" y1="165.5684" x2="225.5744" y2="165.5684" gradientTransform="matrix(0.166667,0,0,0.166667,0,0)">
<stop offset="0" style="stop-color:rgb(49.411765%,74.509804%,84.313725%);stop-opacity:1;"/>
<stop offset="1" style="stop-color:rgb(7.843137%,19.215686%,59.215686%);stop-opacity:1;"/>
</linearGradient>
<linearGradient id="linear2" gradientUnits="userSpaceOnUse" x1="207.2809" y1="107.4857" x2="289.1301" y2="107.4857" gradientTransform="matrix(0.166667,0,0,0.166667,0,0)">
<stop offset="0" style="stop-color:rgb(49.411765%,74.509804%,84.313725%);stop-opacity:1;"/>
<stop offset="1" style="stop-color:rgb(7.843137%,19.215686%,59.215686%);stop-opacity:1;"/>
</linearGradient>
<linearGradient id="linear3" gradientUnits="userSpaceOnUse" x1="173.09" y1="146.7865" x2="257.0995" y2="146.7865" gradientTransform="matrix(0.166667,0,0,0.166667,0,0)">
<stop offset="0" style="stop-color:rgb(49.411765%,74.509804%,84.313725%);stop-opacity:1;"/>
<stop offset="1" style="stop-color:rgb(7.843137%,19.215686%,59.215686%);stop-opacity:1;"/>
</linearGradient>
<linearGradient id="linear4" gradientUnits="userSpaceOnUse" x1="15.289" y1="166.0451" x2="165.0217" y2="166.0451" gradientTransform="matrix(0.166667,0,0,0.166667,0,0)">
<stop offset="0" style="stop-color:rgb(49.411765%,74.509804%,84.313725%);stop-opacity:1;"/>
<stop offset="1" style="stop-color:rgb(7.843137%,19.215686%,59.215686%);stop-opacity:1;"/>
</linearGradient>
<linearGradient id="linear5" gradientUnits="userSpaceOnUse" x1="111.5918" y1="171.6948" x2="293.9677" y2="171.6948" gradientTransform="matrix(0.166667,0,0,0.166667,0,0)">
<stop offset="0" style="stop-color:rgb(49.411765%,74.509804%,84.313725%);stop-opacity:1;"/>
<stop offset="1" style="stop-color:rgb(7.843137%,19.215686%,59.215686%);stop-opacity:1;"/>
</linearGradient>
<linearGradient id="linear6" gradientUnits="userSpaceOnUse" x1="6.9773" y1="169.7812" x2="271.8454" y2="169.7812" gradientTransform="matrix(0.166667,0,0,0.166667,0,0)">
<stop offset="0" style="stop-color:rgb(49.411765%,74.509804%,84.313725%);stop-opacity:1;"/>
<stop offset="1" style="stop-color:rgb(7.843137%,19.215686%,59.215686%);stop-opacity:1;"/>
</linearGradient>
<linearGradient id="linear7" gradientUnits="userSpaceOnUse" x1="136.5251" y1="58.3908" x2="254.7301" y2="58.3908" gradientTransform="matrix(0.166667,0,0,0.166667,0,0)">
<stop offset="0" style="stop-color:rgb(49.411765%,74.509804%,84.313725%);stop-opacity:1;"/>
<stop offset="1" style="stop-color:rgb(7.843137%,19.215686%,59.215686%);stop-opacity:1;"/>
</linearGradient>
</defs>
<g id="surface1">
<path style=" stroke:none;fill-rule:nonzero;fill:url(#linear0);" d="M 26.683594 31.117188 C 26.449219 29.785156 26.234375 27.75 26.632812 25.351562 C 27.101562 22.515625 28.183594 20.382812 28.933594 19.148438 C 28.785156 21.117188 28.785156 24.148438 29.765625 27.667969 C 30.851562 31.582031 32.683594 34.398438 33.933594 36.050781 C 31.515625 34.382812 29.101562 32.75 26.683594 31.117188 Z M 26.683594 31.117188 "/>
<path style=" stroke:none;fill-rule:nonzero;fill:url(#linear1);" d="M 37.601562 28.050781 L 33.949219 36.066406 C 32.714844 34.566406 30.800781 31.832031 29.683594 27.917969 C 28.617188 24.183594 28.75 21 28.964844 19.101562 C 29.648438 20.535156 30.851562 22.632812 32.933594 24.667969 C 34.617188 26.351562 36.316406 27.398438 37.601562 28.050781 Z M 37.601562 28.050781 "/>
<path style=" stroke:none;fill-rule:nonzero;fill:url(#linear2);" d="M 48.183594 17.285156 C 48.015625 18.617188 47.566406 20.917969 46.117188 23.382812 C 44.667969 25.832031 42.867188 27.332031 41.785156 28.117188 C 41.832031 27.550781 36.917969 31.882812 40.035156 22.167969 C 40.316406 21.285156 39.964844 20.332031 39.832031 19.449219 C 39.734375 18.832031 39.617188 18.214844 39.464844 17.617188 C 39.351562 17.132812 39.199219 16.667969 39.035156 16.214844 C 38.5 14.667969 37.765625 13.234375 36.851562 11.898438 C 36.167969 10.917969 35.398438 9.984375 34.535156 9.148438 C 35.015625 9.035156 35.734375 8.816406 36.550781 8.367188 C 37.398438 7.898438 37.632812 7.566406 38.234375 7.382812 C 38.765625 7.214844 39.601562 7.132812 40.851562 7.734375 C 40.851562 7.734375 40.867188 7.734375 40.867188 7.734375 C 41.066406 7.734375 41.285156 7.734375 41.484375 7.75 C 42.632812 8.484375 44.484375 9.898438 46.035156 12.265625 C 47.316406 14.183594 47.898438 16.050781 48.183594 17.285156 Z M 48.183594 17.285156 "/>
<path style=" stroke:none;fill-rule:nonzero;fill:url(#linear3);" d="M 31.417969 40.765625 L 36.582031 41.132812 L 42.199219 38.050781 L 42.714844 30.101562 C 42.800781 29.234375 42.832031 28.367188 42.832031 27.484375 C 42.832031 26.082031 42.734375 24.714844 42.535156 23.367188 C 42.398438 22.417969 42.199219 21.5 41.964844 20.582031 C 41.785156 19.867188 41.566406 19.148438 41.316406 18.449219 C 40.5 16.117188 39.382812 13.917969 38.015625 11.917969 C 36.984375 10.417969 35.800781 9.015625 34.5 7.765625 C 33.167969 8.398438 31.917969 9.167969 30.734375 10.035156 C 30.601562 10.433594 30.449219 10.832031 30.265625 11.199219 L 30.199219 11.332031 C 30.132812 11.464844 30.050781 11.617188 29.964844 11.75 C 29.648438 12.285156 29.265625 12.765625 28.832031 13.199219 C 29.648438 13.75 36 18.234375 36.648438 26.648438 C 37.300781 34.75 32.167969 40.035156 31.417969 40.765625 Z M 31.417969 40.765625 "/>
<path style=" stroke:none;fill-rule:nonzero;fill:url(#linear4);" d="M 27.5 39.25 C 25.832031 39.734375 24.066406 40 22.234375 40 C 13.535156 40 6.234375 34.035156 4.183594 25.984375 C 4.167969 25.898438 4.132812 25.816406 4.117188 25.734375 C 4.082031 25.765625 4.066406 25.800781 4.035156 25.851562 C 3.101562 24.867188 2.515625 23.550781 2.515625 22.082031 C 2.515625 21.617188 2.566406 21.183594 2.683594 20.75 C 2.832031 20.167969 3.066406 19.617188 3.398438 19.117188 C 3.515625 19.117188 3.617188 19.117188 3.734375 19.101562 C 3.964844 19.082031 4.214844 19.050781 4.433594 19.015625 C 5.132812 18.882812 5.785156 18.617188 6.367188 18.234375 C 6.75 17.984375 7.101562 17.683594 7.417969 17.351562 C 7.398438 17.433594 7.382812 17.5 7.382812 17.582031 C 7.632812 17.234375 7.933594 16.917969 8.265625 16.648438 C 9.214844 15.851562 10.433594 15.367188 11.765625 15.367188 C 11.851562 15.367188 11.933594 15.367188 12.015625 15.367188 C 12.601562 15.632812 13.117188 16 13.566406 16.449219 C 14.449219 17.316406 15.035156 18.5 15.148438 19.800781 C 14.449219 19.816406 13.765625 19.898438 13.101562 20.015625 C 13.066406 20.015625 13.050781 20.035156 13.015625 20.035156 C 10.984375 20.417969 9.117188 21.214844 7.484375 22.367188 C 7.667969 23.285156 7.933594 24.183594 8.285156 25.035156 C 8.367188 25.25 8.464844 25.449219 8.566406 25.667969 C 8.832031 26.25 9.148438 26.800781 9.484375 27.332031 C 11.964844 31.183594 16.25 33.765625 21.148438 33.867188 C 22.75 36.183594 24.933594 38.066406 27.5 39.25 Z M 27.5 39.25 "/>
<path style=" stroke:none;fill-rule:nonzero;fill:url(#linear5);" d="M 49 23.433594 C 49 24.714844 48.898438 25.984375 48.699219 27.214844 C 48.5 28.449219 48.214844 29.648438 47.832031 30.816406 C 47.199219 32.75 46.332031 34.582031 45.25 36.285156 C 44.433594 37.265625 41.734375 40.199219 37.367188 40.785156 C 35.75 41 34.367188 40.832031 33.316406 40.601562 C 31.582031 40.601562 29.917969 40.300781 28.382812 39.75 C 27.964844 39.601562 27.566406 39.433594 27.167969 39.25 C 24.667969 38.101562 22.535156 36.265625 21.035156 33.984375 C 20.285156 32.851562 19.683594 31.617188 19.265625 30.300781 C 18.816406 28.898438 18.582031 27.398438 18.582031 25.851562 C 18.582031 24.082031 18.898438 22.382812 19.464844 20.800781 C 19.550781 20.550781 19.648438 20.316406 19.75 20.066406 C 19.765625 20.015625 19.785156 19.964844 19.816406 19.933594 C 20.035156 19.417969 20.300781 18.933594 20.566406 18.449219 C 22 24.484375 26.617188 29.035156 31.964844 29.785156 C 39.066406 30.785156 46.734375 25.066406 47.898438 16.300781 C 48.285156 17.535156 48.566406 18.816406 48.75 20.132812 C 48.816406 20.601562 48.867188 21.066406 48.898438 21.535156 C 48.964844 22.199219 49 22.816406 49 23.433594 Z M 49 23.433594 "/>
<path style=" stroke:none;fill-rule:nonzero;fill:url(#linear6);" d="M 45.300781 36.199219 C 41.050781 42.867188 33.582031 47.285156 25.101562 47.285156 C 23.699219 47.285156 22.316406 47.167969 20.984375 46.933594 C 12.167969 45.417969 5 39.050781 2.300781 30.683594 C 1.550781 28.367188 1.148438 25.917969 1.148438 23.351562 C 1.148438 22.617188 1.183594 21.882812 1.25 21.167969 C 1.316406 20.464844 1.417969 19.765625 1.535156 19.066406 C 2.050781 16.214844 3.066406 13.550781 4.484375 11.148438 C 4.867188 10.515625 5.265625 9.882812 5.699219 9.300781 C 6.484375 9.601562 7.183594 10.101562 7.734375 10.714844 C 8.449219 11.535156 8.933594 12.566406 9.050781 13.699219 C 9.066406 13.882812 9.082031 14.066406 9.082031 14.25 C 9.082031 14.683594 9.035156 15.117188 8.933594 15.515625 C 8.832031 15.984375 8.535156 17.148438 7.5 18.132812 C 6.148438 19.449219 4.5 19.535156 4.101562 19.550781 C 4.117188 19.367188 4.148438 19.199219 4.167969 19.015625 C 4.015625 19.183594 3.882812 19.367188 3.765625 19.550781 C 3.449219 20.035156 3.214844 20.566406 3.066406 21.148438 C 2.964844 21.566406 2.898438 22 2.898438 22.449219 C 2.898438 23.867188 3.464844 25.167969 4.367188 26.117188 C 4.417969 26.167969 4.449219 26.214844 4.5 26.25 C 6.5 34.101562 13.601562 39.898438 22.066406 39.898438 C 23.851562 39.898438 25.566406 39.648438 27.183594 39.167969 C 28.648438 39.765625 32.050781 40.917969 36.367188 40.285156 C 41.066406 39.601562 44.117188 37.234375 45.300781 36.199219 Z M 45.300781 36.199219 "/>
<path style=" stroke:none;fill-rule:nonzero;fill:url(#linear7);" d="M 23.035156 10.515625 C 23.933594 10.550781 25.917969 10.5 27.984375 9.332031 C 29.285156 8.601562 30.132812 7.683594 30.632812 7.050781 C 31.132812 6.5 32.667969 4.984375 35.050781 4.683594 C 37.867188 4.332031 40.75 5.816406 42.449219 8.484375 C 42.117188 8.316406 39.449219 7.050781 36.683594 8.398438 C 34.832031 9.300781 34 10.882812 33.75 11.417969 C 32.734375 13.550781 30.582031 14.898438 28.265625 14.851562 C 25.765625 14.800781 23.535156 13.117188 22.75 10.683594 "/>
</g>
</svg>
